<?xml version="1.0" encoding="UTF-8"?>
<svg width="700pt" height="700pt" version="1.1" viewBox="0 0 700 700" xmlns="http://www.w3.org/2000/svg">
 <path d="m529.93 68.984c-13.375-9.9453-30.699-12.902-46.617-7.9609l-157.5 48.457c-10.754 3.2734-20.168 9.9258-26.844 18.969-6.6797 9.043-10.262 19.996-10.223 31.238v184.59c-15.059-11.582-33.504-17.891-52.5-17.953-23.207 0-45.461 9.2188-61.871 25.625-16.41 16.41-25.629 38.668-25.629 61.875 0 23.203 9.2188 45.461 25.629 61.871 16.41 16.41 38.664 25.629 61.871 25.629s45.461-9.2188 61.871-25.629c16.41-16.41 25.629-38.668 25.629-61.871v-254.14c-0.003906-3.7461 1.1953-7.3945 3.418-10.41 2.2227-3.0156 5.3555-5.2344 8.9375-6.3359l157.5-48.457c5.3086-1.6328 11.078-0.65234 15.543 2.6484 4.4688 3.3008 7.1016 8.5273 7.1016 14.078v163.07c-15.059-11.582-33.504-17.891-52.5-17.953-23.207 0-45.461 9.2188-61.871 25.625-16.41 16.41-25.629 38.668-25.629 61.875 0 23.203 9.2188 45.461 25.629 61.871 16.41 16.41 38.664 25.629 61.871 25.629s45.461-9.2188 61.871-25.629c16.41-16.41 25.629-38.668 25.629-61.871v-232.61c0.089844-16.68-7.8398-32.391-21.316-42.227zm-293.68 397.34c-13.926 0-27.277-5.5312-37.125-15.379-9.8438-9.8438-15.375-23.199-15.375-37.121 0-13.926 5.5312-27.277 15.375-37.125 9.8477-9.8438 23.199-15.375 37.125-15.375s27.277 5.5312 37.125 15.375c9.8438 9.8477 15.375 23.199 15.375 37.125 0 13.922-5.5312 27.277-15.375 37.121-9.8477 9.8477-23.199 15.379-37.125 15.379zm227.5-70c-13.926 0-27.277-5.5312-37.125-15.379-9.8438-9.8438-15.375-23.199-15.375-37.121 0-13.926 5.5312-27.277 15.375-37.125 9.8477-9.8438 23.199-15.375 37.125-15.375s27.277 5.5312 37.125 15.375c9.8438 9.8477 15.375 23.199 15.375 37.125 0 13.922-5.5312 27.277-15.375 37.121-9.8477 9.8477-23.199 15.379-37.125 15.379z"/>
</svg>
